<svg id="Component_41_1" data-name="Component 41 – 1" xmlns="http://www.w3.org/2000/svg" width="139" height="139" viewBox="0 0 139 139">
  <circle id="Ellipse_283" data-name="Ellipse 283" cx="69.5" cy="69.5" r="69.5" fill="#f5aabf"/>
  <path id="Path_2509" data-name="Path 2509" d="M46.768,54.162H7.6V14.99H32.778v-5.6H7.6A5.612,5.612,0,0,0,2,14.99V54.162a5.612,5.612,0,0,0,5.6,5.6H46.768a5.612,5.612,0,0,0,5.6-5.6V28.98h-5.6Zm-21.8-8.87-5.484-6.6-7.695,9.877H42.571l-9.9-13.179Zm27.393-35.9V1h-5.6V9.394H38.374c.028.028,0,5.6,0,5.6h8.394v8.366c.028.028,5.6,0,5.6,0V14.99h8.394v-5.6Z" transform="translate(40.02 38.222)" fill="#fff"/>
</svg>
