<svg xmlns="http://www.w3.org/2000/svg" width="32.007" height="32" viewBox="0 0 32.007 32">
  <path id="Path_2487" data-name="Path 2487" d="M24.277,19.6a3.184,3.184,0,0,0,2.8-1.648L32.8,7.568A1.594,1.594,0,0,0,31.412,5.2H7.735L6.231,2H1V5.2H4.2L9.959,17.344l-2.16,3.9A3.206,3.206,0,0,0,10.6,26H29.8V22.8H10.6l1.76-3.2ZM9.255,8.4H28.692l-4.415,8H13.046ZM10.6,27.6a3.2,3.2,0,1,0,3.2,3.2A3.2,3.2,0,0,0,10.6,27.6Zm16,0a3.2,3.2,0,1,0,3.2,3.2A3.2,3.2,0,0,0,26.6,27.6Z" transform="translate(-1 -2)" fill="#fff"/>
</svg>
