<svg xmlns="http://www.w3.org/2000/svg" width="49.56" height="51.625" viewBox="0 0 49.56 51.625">
  <path id="Path_2489" data-name="Path 2489" d="M25.583,20.667H30.5V13.292h7.375V8.375H30.5V1H25.583V8.375H18.208v4.917h7.375ZM15.75,42.792a4.917,4.917,0,1,0,4.917,4.917A4.91,4.91,0,0,0,15.75,42.792Zm24.583,0a4.917,4.917,0,1,0,4.917,4.917A4.91,4.91,0,0,0,40.333,42.792ZM18.454,30.5H36.769a4.893,4.893,0,0,0,4.3-2.532L50.56,10.735l-4.277-2.36L36.769,25.583H19.511L9.039,3.458H1V8.375H5.917l8.85,18.659-3.319,6a4.926,4.926,0,0,0,4.3,7.3h29.5V35.417H15.75Z" transform="translate(-1 -1)" fill="#7cc0d9"/>
</svg>
