<!-- Generated by IcoMoon.io -->
<svg version="1.1" xmlns="http://www.w3.org/2000/svg" width="1024" height="1024" viewBox="0 0 1024 1024">
<title></title>
<g id="icomoon-ignore">
</g>
<path fill="#7cc0d9" d="M904.637 60.273h-9.373c-11.541 0-20.897 9.356-20.897 20.897s9.356 20.897 20.897 20.897h9.373c11.541 0 20.897-9.356 20.897-20.897s-9.356-20.897-20.897-20.897v0z"></path>
<path fill="#7cc0d9" d="M827.495 60.273h-607.557c-11.541 0-20.897 9.356-20.897 20.897s9.356 20.897 20.897 20.897h607.557c11.541 0 20.897-9.356 20.897-20.897s-9.356-20.897-20.897-20.897v0z"></path>
<path fill="#7cc0d9" d="M904.637 120.868h-9.373c-11.541 0-20.897 9.356-20.897 20.897s9.356 20.897 20.897 20.897v0h9.373c11.541 0 20.897-9.356 20.897-20.897s-9.356-20.897-20.897-20.897v0z"></path>
<path fill="#7cc0d9" d="M827.495 120.868h-607.557c-11.541 0-20.897 9.356-20.897 20.897s9.356 20.897 20.897 20.897v0h607.557c11.541 0 20.897-9.356 20.897-20.897s-9.356-20.897-20.897-20.897v0z"></path>
<path fill="#7cc0d9" d="M904.644 181.465h-690.377c-0.008 0-0.019 0-0.027 0-38.688 0-70.065-31.299-70.189-69.958v-0.012c0-0.268 0-0.545 0-0.814 0.632-38.321 31.814-69.152 70.211-69.218h690.384c11.539 0 20.893-9.354 20.893-20.893s-9.354-20.893-20.893-20.893v0h-690.377c-60.854 0.156-110.318 48.697-111.961 109.175l-0.003 0.153q-0.048 0.69-0.048 1.422v801.368c0.122 61.774 50.222 111.808 112.012 111.82h690.379c11.539 0 20.893-9.354 20.893-20.893v0-800.354c0-0.002 0-0.005 0-0.007 0-11.539-9.354-20.893-20.893-20.893v0zM193.405 978.616c-28.783-9.134-49.288-35.585-49.359-66.835v-713.316c13.706 11.116 30.385 19.116 48.656 22.665l0.703 0.114zM883.75 981.77h-648.55v-758.511h648.55z"></path>
<path fill="#7cc0d9" d="M699.919 861.724h-9.353c-11.541 0-20.897 9.356-20.897 20.897s9.356 20.897 20.897 20.897v0h9.353c11.541 0 20.897-9.356 20.897-20.897s-9.356-20.897-20.897-20.897v0z"></path>
<path fill="#7cc0d9" d="M622.977 861.724h-202.992c-11.541 0-20.897 9.356-20.897 20.897s9.356 20.897 20.897 20.897v0h202.931c11.541 0 20.897-9.356 20.897-20.897s-9.356-20.897-20.897-20.897v0z"></path>
<path fill="#7cc0d9" d="M729.66 479.531c0-0.085 0-0.187 0-0.289 0-25.931-14.569-48.46-35.969-59.846l-0.365-0.178c1.918-6.005 3.022-12.91 3.022-20.075 0-37.652-30.523-68.175-68.175-68.175-7.168 0-14.078 1.106-20.569 3.158l0.482-0.132c-11.685-21.809-34.319-36.39-60.358-36.39s-48.673 14.583-60.179 36.025l-0.178 0.365c-6.017-1.926-12.939-3.037-20.119-3.037-37.649 0-68.168 30.519-68.168 68.168 0 7.172 1.108 14.083 3.159 20.576l-0.132-0.482c-21.768 11.697-36.319 34.309-36.319 60.32s14.551 48.624 35.955 60.142l0.364 0.178c-1.919 6.006-3.025 12.915-3.025 20.081 0 37.652 30.523 68.175 68.175 68.175 7.177 0 14.094-1.109 20.591-3.165l-0.482 0.132c8.405 15.847 22.47 27.752 39.437 33.146l0.479 0.131v49.807c-29.655-33.365-72.683-54.28-120.598-54.28-0.008 0-0.015 0-0.024 0h0.002c-11.291 0-20.445 9.154-20.445 20.445v0c0.095 89.165 72.352 161.422 161.508 161.517h0.092c89.109-0.173 161.287-72.403 161.377-161.515v-0.008c0-11.291-9.154-20.445-20.445-20.445v0c-0.010 0-0.022 0-0.034 0-47.905 0-90.926 20.909-120.437 54.097l-0.143 0.163v-49.78c17.447-5.524 31.511-17.43 39.74-32.911l0.177-0.365c6.018 1.923 12.942 3.030 20.124 3.030 0.019 0 0.037 0 0.056 0h-0.003c37.627-0.029 68.115-30.538 68.115-68.168 0-7.168-1.106-14.078-3.158-20.569l0.132 0.482c21.765-11.561 36.336-34.087 36.336-60.016 0-0.109 0-0.219 0-0.328v0.017zM429.227 696.881c48.632 9.604 86.34 47.312 95.817 95.175l0.127 0.769c-48.632-9.604-86.34-47.312-95.817-95.175l-0.127-0.769zM666.228 696.881c-9.602 48.632-47.31 86.342-95.175 95.817l-0.768 0.127c9.601-48.635 47.314-86.345 95.181-95.817l0.768-0.127zM662.197 506.748c-11.039 0.323-19.866 9.349-19.866 20.436 0 5.439 2.123 10.38 5.587 14.044l-0.008-0.010c4.619 4.868 7.457 11.464 7.457 18.722 0 15.038-12.191 27.229-27.229 27.229-7.258 0-13.854-2.84-18.734-7.469l0.012 0.012c-3.654-3.458-8.599-5.587-14.041-5.587-11.089 0-20.115 8.831-20.43 19.845v0.029c-0.418 14.709-12.443 26.472-27.212 26.472s-26.794-11.765-27.212-26.434l-0.002-0.039c-0.323-11.039-9.349-19.866-20.436-19.866-5.439 0-10.38 2.123-14.044 5.587l0.010-0.008c-4.894 4.649-11.529 7.51-18.829 7.51-0.007 0-0.015 0-0.022 0h0.002c-15.014-0.017-27.18-12.193-27.18-27.209 0-7.296 2.871-13.92 7.544-18.806l-0.010 0.010c3.453-3.654 5.577-8.595 5.577-14.034 0-11.087-8.826-20.114-19.835-20.436h-0.029c-14.709-0.418-26.472-12.443-26.472-27.212s11.765-26.794 26.434-27.212l0.039-0.002c11.043-0.314 19.874-9.341 19.874-20.43 0-5.442-2.127-10.387-5.595-14.049l0.008 0.010c-4.619-4.868-7.457-11.464-7.457-18.722 0-15.038 12.191-27.229 27.229-27.229 7.258 0 13.854 2.84 18.734 7.469l-0.012-0.012c3.654 3.458 8.599 5.587 14.041 5.587 11.089 0 20.115-8.831 20.43-19.845v-0.029c0.418-14.709 12.443-26.472 27.212-26.472s26.794 11.765 27.212 26.434l0.002 0.039c0.314 11.043 9.341 19.874 20.43 19.874 5.442 0 10.387-2.127 14.049-5.595l-0.010 0.008c4.894-4.649 11.527-7.51 18.828-7.51 0.008 0 0.017 0 0.025 0h-0.002c15.014 0.017 27.18 12.193 27.18 27.209 0 7.296-2.871 13.92-7.544 18.806l0.010-0.010c-3.458 3.654-5.587 8.599-5.587 14.041 0 11.087 8.828 20.112 19.838 20.43h0.029c14.709 0.418 26.472 12.443 26.472 27.212s-11.765 26.794-26.434 27.212l-0.039 0.002z"></path>
<path fill="#7cc0d9" d="M547.734 382.076c-53.964 0-97.711 43.747-97.711 97.711s43.747 97.711 97.711 97.711c53.964 0 97.711-43.747 97.711-97.711v0c-0.063-53.939-43.772-97.648-97.704-97.711h-0.007zM547.734 536.613c-31.386 0-56.828-25.442-56.828-56.828s25.442-56.828 56.828-56.828c31.386 0 56.828 25.442 56.828 56.828v0c-0.024 31.381-25.449 56.816-56.825 56.855h-0.003z"></path>
</svg>
