<!-- Generated by IcoMoon.io -->
<svg version="1.1" xmlns="http://www.w3.org/2000/svg" width="1024" height="1024" viewBox="0 0 1024 1024">
<title></title>
<g id="icomoon-ignore">
</g>
<path fill="#fff" d="M940.157 755.519c-3.619-3.62-8.619-5.858-14.142-5.858-11.046 0-19.999 8.954-19.999 19.999s8.954 19.999 19.999 19.999c5.523 0 10.523-2.239 14.142-5.858v0c3.609-3.624 5.84-8.622 5.84-14.141s-2.231-10.518-5.84-14.142l0.001 0.001z"></path>
<path fill="#fff" d="M512 491.991c-11.046 0-19.999 8.954-19.999 19.999s8.954 19.999 19.999 19.999c11.046 0 19.999-8.954 19.999-19.999v0c-0.006-11.043-8.957-19.993-19.998-19.999h-0.001z"></path>
<path fill="#fff" d="M963.996 0.006h-903.982c-33.12 0.049-59.955 26.887-59.997 60.004v703.985c0.043 33.121 26.877 59.959 59.993 60.008h298.275c-7.612 43.644-38.22 78.633-78.646 92.399l-0.835 0.247-25.138 8.38c-8.010 2.731-13.669 10.19-13.669 18.969v0 59.997c0 11.046 8.954 19.999 19.999 19.999h704.002c33.116-0.049 59.948-26.881 59.997-59.993v-903.987c-0.043-33.121-26.877-59.959-59.993-60.008h-0.005zM60.014 783.994c-11.041-0.012-19.987-8.959-19.999-19.998v-105.994h583.987v125.992zM279.962 983.985v-25.578l11.459-3.82c57.324-19.454 99.342-69.265 107.206-129.799l0.085-0.796h225.312v140.004c0 0.004 0 0.009 0 0.014 0 7.165 1.262 14.036 3.576 20.4l-0.132-0.415zM983.942 963.986c-0.012 11.041-8.959 19.987-19.998 19.999h-279.946c-11.041-0.012-19.987-8.959-19.999-19.998v-19.989h319.996zM983.942 903.989h-319.942v-371.99h319.996zM983.942 491.991h-319.942v-19.988c0.012-11.041 8.959-19.987 19.998-19.999h280.032c11.041 0.012 19.987 8.959 19.999 19.998v0.001zM983.942 415.427c-5.951-2.182-12.822-3.444-19.987-3.444-0.004 0-0.008 0-0.013 0h-279.944c-33.116 0.049-59.948 26.881-59.997 59.993v146.028h-583.987v-557.99c0.012-11.041 8.959-19.987 19.998-19.999h903.983c11.041 0.012 19.987 8.959 19.999 19.998v0.001z"></path>
<path fill="#fff" d="M883.99 125.999h-743.979c-11.046 0-19.999 8.954-19.999 19.999 0 0.004 0 0.008 0 0.011v-0.001 125.992c0 11.046 8.954 19.999 19.999 19.999h743.979c11.046 0 19.999-8.954 19.999-19.999v0-125.992c0-0.003 0-0.007 0-0.011 0-11.046-8.954-19.999-19.999-19.999v0zM863.99 251.991h-703.981v-85.983h703.981z"></path>
<path fill="#fff" d="M512 371.996h-371.99c-11.046 0-19.999 8.954-19.999 19.999s8.954 19.999 19.999 19.999v0h371.99c11.046 0 19.999-8.954 19.999-19.999s-8.954-19.999-19.999-19.999v0z"></path>
<path fill="#fff" d="M420.008 491.991h-280.030c-11.046 0-19.999 8.954-19.999 19.999s8.954 19.999 19.999 19.999v0h280.030c11.046 0 19.999-8.954 19.999-19.999s-8.954-19.999-19.999-19.999v0z"></path>
<path fill="#fff" d="M551.998 703.987h-39.998c-11.046 0-19.999 8.954-19.999 19.999s8.954 19.999 19.999 19.999v0h39.998c11.046 0 19.999-8.954 19.999-19.999s-8.954-19.999-19.999-19.999v0z"></path>
<path fill="#fff" d="M923.944 577.995h-199.99c-11.027 0.024-19.956 8.969-19.956 19.999 0 0.004 0 0.008 0 0.011v-0.001 79.996c0 11.046 8.954 19.999 19.999 19.999h199.948c11.046 0 19.999-8.954 19.999-19.999v0-79.996c0-0.003 0-0.007 0-0.011 0-11.046-8.954-19.999-19.999-19.999v0zM903.946 657.991h-159.95v-39.998h159.993z"></path>
<path fill="#fff" d="M843.991 743.985h-119.994c-11.046 0-19.999 8.954-19.999 19.999s8.954 19.999 19.999 19.999v0h119.994c11.046 0 19.999-8.954 19.999-19.999s-8.954-19.999-19.999-19.999v0z"></path>
</svg>
