<svg xmlns="http://www.w3.org/2000/svg" width="33.225" height="33.225" viewBox="0 0 33.225 33.225">
  <path id="Path_3" data-name="Path 3" d="M16.612,2.953a50.937,50.937,0,0,1,6.645.185,8.561,8.561,0,0,1,3.138.554A6.482,6.482,0,0,1,29.533,6.83a8.561,8.561,0,0,1,.554,3.138c0,1.661.185,2.215.185,6.645a50.937,50.937,0,0,1-.185,6.645,8.561,8.561,0,0,1-.554,3.138A6.482,6.482,0,0,1,26.4,29.533a8.561,8.561,0,0,1-3.138.554c-1.661,0-2.215.185-6.645.185a50.937,50.937,0,0,1-6.645-.185,8.561,8.561,0,0,1-3.138-.554A6.482,6.482,0,0,1,3.692,26.4a8.561,8.561,0,0,1-.554-3.138c0-1.661-.185-2.215-.185-6.645a50.937,50.937,0,0,1,.185-6.645A8.561,8.561,0,0,1,3.692,6.83,6.629,6.629,0,0,1,4.984,4.984,3.121,3.121,0,0,1,6.83,3.692a8.561,8.561,0,0,1,3.138-.554,50.937,50.937,0,0,1,6.645-.185m0-2.953a54.539,54.539,0,0,0-6.83.185A11.4,11.4,0,0,0,5.722.923,7.226,7.226,0,0,0,2.769,2.769,7.226,7.226,0,0,0,.923,5.722,8.41,8.41,0,0,0,.185,9.783,54.539,54.539,0,0,0,0,16.612a54.539,54.539,0,0,0,.185,6.83A11.4,11.4,0,0,0,.923,27.5a7.226,7.226,0,0,0,1.846,2.953A7.226,7.226,0,0,0,5.722,32.3a11.4,11.4,0,0,0,4.061.738,54.54,54.54,0,0,0,6.83.185,54.54,54.54,0,0,0,6.83-.185A11.4,11.4,0,0,0,27.5,32.3a7.744,7.744,0,0,0,4.8-4.8,11.4,11.4,0,0,0,.738-4.061c0-1.846.185-2.4.185-6.83a54.54,54.54,0,0,0-.185-6.83A11.4,11.4,0,0,0,32.3,5.722a7.226,7.226,0,0,0-1.846-2.953A7.226,7.226,0,0,0,27.5.923,11.4,11.4,0,0,0,23.442.185,54.539,54.539,0,0,0,16.612,0m0,8.122a8.354,8.354,0,0,0-8.491,8.491,8.491,8.491,0,1,0,8.491-8.491m0,14.028a5.439,5.439,0,0,1-5.537-5.537,5.439,5.439,0,0,1,5.537-5.537,5.439,5.439,0,0,1,5.537,5.537,5.439,5.439,0,0,1-5.537,5.537m8.86-16.428a2.03,2.03,0,1,0,2.03,2.03,2.048,2.048,0,0,0-2.03-2.03" fill="#bebdbf" fill-rule="evenodd"/>
</svg>
