<svg xmlns="http://www.w3.org/2000/svg" width="246.21" height="246.269" viewBox="0 0 246.21 246.269">
  <g id="Group_2083" data-name="Group 2083" opacity="0.2">
    <path id="Path_2479" data-name="Path 2479" d="M353.584,227.763a14.139,14.139,0,1,0-14.134-14.138A14.138,14.138,0,0,0,353.584,227.763Z" transform="translate(-190.058 -111.674)" fill="#bebdbf"/>
    <path id="Path_2480" data-name="Path 2480" d="M261.035,331.784a5.854,5.854,0,0,0-5.928,5.841c0,18.343-14.644,32.622-33.339,32.622H202.132a33.149,33.149,0,0,1-33.342-32.938,5.927,5.927,0,0,0-11.853-.009,45.045,45.045,0,0,0,45.2,44.832h19.635c25.339,0,45.2-19.5,45.2-44.493A5.863,5.863,0,0,0,261.035,331.784Z" transform="translate(-87.885 -185.534)" fill="#bebdbf"/>
    <path id="Path_2481" data-name="Path 2481" d="M173.716,219.567a5.942,5.942,0,0,0-5.928-5.944H144.073a5.943,5.943,0,0,0,0,11.885h23.714A5.939,5.939,0,0,0,173.716,219.567Z" transform="translate(-77.365 -119.589)" fill="#bebdbf"/>
    <path id="Path_2482" data-name="Path 2482" d="M123.168,0C55.294,0,.071,55.238.067,123.136A123.1,123.1,0,1,0,123.168,0Zm0,234.412A111.276,111.276,0,1,1,234.42,123.136,111.385,111.385,0,0,1,123.168,234.412Z" transform="translate(-0.067)" fill="#bebdbf"/>
  </g>
</svg>
