<svg id="Group_2184" data-name="Group 2184" xmlns="http://www.w3.org/2000/svg" width="52" height="52" viewBox="0 0 52 52">
  <path id="Path_2510" data-name="Path 2510" d="M0,0H52V52H0Z" fill="none"/>
  <path id="Path_2511" data-name="Path 2511" d="M36.667,42.167H6.333V11.833h19.5V7.5H6.333A4.346,4.346,0,0,0,2,11.833V42.167A4.346,4.346,0,0,0,6.333,46.5H36.667A4.346,4.346,0,0,0,41,42.167v-19.5H36.667ZM19.788,35.3l-4.247-5.113L9.583,37.833H33.417l-7.67-10.2ZM41,7.5V1H36.667V7.5h-6.5c.022.022,0,4.333,0,4.333h6.5v6.478c.022.022,4.333,0,4.333,0V11.833h6.5V7.5Z" transform="translate(2.333 1.167)" fill="#7cc0d9"/>
</svg>
