<svg xmlns="http://www.w3.org/2000/svg" width="20.739" height="25.356" viewBox="0 0 20.739 25.356">
  <g id="Bag" transform="translate(0.7 0.7)">
    <path id="Path_152" data-name="Path 152" d="M12.087,10.481c0,.9.483,1.5,1.209,1.5s1.209-.6,1.209-1.5-.483-1.5-1.209-1.5S12.087,9.582,12.087,10.481Zm-7.252,0c0,.9.483,1.5,1.209,1.5s1.209-.6,1.209-1.5-.483-1.5-1.209-1.5S4.835,9.582,4.835,10.481Zm13.3-3.144,1.209,14.973a1.948,1.948,0,0,1-.363,1.2.878.878,0,0,1-.846.449H1.209a.878.878,0,0,1-.846-.449A1.948,1.948,0,0,1,0,22.309L1.209,7.337c.121-.749.6-1.348,1.209-1.348H4.835C4.835,2.7,7.01,0,9.67,0S14.5,2.7,14.5,5.989h2.417C17.526,5.989,18.01,6.588,18.13,7.337ZM12.087,5.989H7.252A2.761,2.761,0,0,1,9.67,2.995,2.761,2.761,0,0,1,12.087,5.989Z" fill="none" stroke="#c7a35f" stroke-width="1.4" fill-rule="evenodd"/>
  </g>
</svg>
