<svg xmlns="http://www.w3.org/2000/svg" width="220" height="206" viewBox="0 0 220 206">
  <path id="Icon_Color" data-name="Icon Color" d="M109.939,206l-.01-.011-5.014-5.4L25.42,116.416l.112-.112-8.156-8.651c-23.169-24.538-23.169-64.464,0-89a57.976,57.976,0,0,1,85.2,0l7.462,7.91,7.4-7.848a57.987,57.987,0,0,1,85.187,0c23.167,24.535,23.167,64.467,0,89.015l-92.439,98.2-.1-.1-.137.164Zm-.012-20.443.009.011.189.212L192.6,98.322c18.285-19.364,18.285-50.851,0-70.191a45.217,45.217,0,0,0-65.152,0L110.038,46.572,92.553,28.057a45.181,45.181,0,0,0-65.14,0c-18.271,19.349-18.271,50.842,0,70.2l16.78,17.773-.112.124,65.7,69.56.138-.151Z" fill="#c7a35f"/>
</svg>
