<svg xmlns="http://www.w3.org/2000/svg" width="24.407" height="21.362" viewBox="0 0 24.407 21.362">
  <g id="Group_1725" data-name="Group 1725" transform="translate(-697.667 -849.131)">
    <path id="heart" d="M21.852,33.519a7.18,7.18,0,0,0-9.648.715,7.175,7.175,0,0,0-9.648-.715A7.212,7.212,0,0,0,2.05,44.063l8.361,8.519a2.5,2.5,0,0,0,3.585,0l8.361-8.519A7.218,7.218,0,0,0,21.852,33.519Zm-1.125,8.938-8.361,8.519a.2.2,0,0,1-.324,0L3.68,42.457a4.916,4.916,0,0,1,.348-7.184,4.833,4.833,0,0,1,6.507.5l1.668,1.7,1.668-1.7a4.83,4.83,0,0,1,6.507-.505A4.937,4.937,0,0,1,20.727,42.457Z" transform="translate(697.667 817.153)" fill="#c7a35f"/>
  </g>
</svg>
