<svg id="_Icon_Color" data-name="↳ Icon Color" xmlns="http://www.w3.org/2000/svg" width="254" height="254" viewBox="0 0 254 254">
  <path id="_Icon_Color-2" data-name="↳ Icon Color" d="M0,201.608c0-19.045,19.045-33.332,53.977-42.862,4.758-1.586,7.929,1.586,9.515,6.358s-1.586,7.929-6.344,9.515c-25.4,6.358-41.276,17.459-41.276,26.989,0,15.873,42.862,36.518,111.127,36.518s111.127-20.645,111.127-36.518c0-9.53-15.873-20.631-41.276-28.575-4.772-1.586-6.358-4.758-6.358-9.53,1.586-4.758,4.772-6.344,9.53-6.344,33.332,9.53,53.978,25.4,53.978,42.862C254,236.541,188.907,254,127,254S0,236.541,0,201.608Zm127,20.631C73.58,164.561,47.62,118.87,47.62,82.552,47.62,37.033,83.238,0,127,0c44.505,0,79.366,36.261,79.366,82.552,0,37.9-26.689,84.91-79.352,139.687l-.014.014ZM63.493,82.552c0,30.5,20.774,68.408,63.507,115.884,42.719-47.462,63.493-85.367,63.493-115.884,0-36.761-28.475-66.679-63.493-66.679S63.493,45.791,63.493,82.552Zm31.761-3.186A31.746,31.746,0,1,1,127,111.112,31.777,31.777,0,0,1,95.254,79.366Zm15.873,0c0,9.5,6.372,15.873,15.873,15.873s15.873-6.372,15.873-15.873S136.487,63.493,127,63.493,111.127,69.879,111.127,79.366Z" fill="#c7a35f" opacity="0.22"/>
</svg>
