<svg id="Symbol_12_3" data-name="Symbol 12 – 3" xmlns="http://www.w3.org/2000/svg" width="33.967" height="32.551" viewBox="0 0 33.967 32.551">
  <rect id="Rectangle_393" data-name="Rectangle 393" width="33.967" height="32.551" transform="translate(0 0)" fill="none"/>
  <path id="Path_2" data-name="Path 2" d="M48.521,28.949C61.073,28.949,67.9,18.612,67.9,9.568V8.645a15,15,0,0,0,3.322-3.507,15.323,15.323,0,0,1-3.876,1.107A7.181,7.181,0,0,0,70.3,2.554a16.93,16.93,0,0,1-4.245,1.661A6.592,6.592,0,0,0,61.073,2a6.935,6.935,0,0,0-6.83,6.83,3.6,3.6,0,0,0,.185,1.477A19.084,19.084,0,0,1,40.4,3.107a7.069,7.069,0,0,0-.923,3.507,7.334,7.334,0,0,0,2.953,5.722,6.223,6.223,0,0,1-3.138-.923h0a6.746,6.746,0,0,0,5.537,6.645,5.69,5.69,0,0,1-1.846.185,3.141,3.141,0,0,1-1.292-.185,6.993,6.993,0,0,0,6.46,4.8,13.936,13.936,0,0,1-8.491,2.953A5.11,5.11,0,0,1,38,25.626a17.422,17.422,0,0,0,10.521,3.322" transform="translate(-37.609 2.154)" fill="#c7a35f" fill-rule="evenodd"/>
</svg>
