<svg xmlns="http://www.w3.org/2000/svg" width="12.174" height="26.193" viewBox="0 0 12.174 26.193">
  <path id="Path_447" data-name="Path 447" d="M157.615,0h-2.728q-3.131,0-4.5,1.486a6.259,6.259,0,0,0-1.367,4.379V7.7a.879.879,0,0,1-.88.88H147.2a.879.879,0,0,0-.88.88v2.755a.879.879,0,0,0,.88.88h.943a.879.879,0,0,1,.88.88V25.313a.879.879,0,0,0,.88.88h3.661a.879.879,0,0,0,.88-.88V13.976a.879.879,0,0,1,.88-.88h1.849a1,1,0,0,0,.972-.875l.292-2.765a.774.774,0,0,0-.787-.875h-2.326a.879.879,0,0,1-.88-.88V6.326a4.94,4.94,0,0,1,.048-.787,1.532,1.532,0,0,1,.215-.548.877.877,0,0,1,.54-.374,3.85,3.85,0,0,1,.993-.1h1.377a.879.879,0,0,0,.879-.88V.88A.879.879,0,0,0,157.615,0Z" transform="translate(-146.32)" fill="#fafafa"/>
</svg>
