<svg xmlns="http://www.w3.org/2000/svg" width="35.241" height="43.32" viewBox="0 0 35.241 43.32">
  <g id="Bag" transform="translate(0.7 0.7)">
    <path id="Path_152" data-name="Path 152" d="M21.151,18.34c0,1.572.846,2.62,2.115,2.62s2.115-1.048,2.115-2.62-.846-2.62-2.115-2.62S21.151,16.768,21.151,18.34Zm-12.69,0c0,1.572.846,2.62,2.115,2.62s2.115-1.048,2.115-2.62-.846-2.62-2.115-2.62S8.46,16.768,8.46,18.34Zm23.266-5.5,2.115,26.2a3.409,3.409,0,0,1-.635,2.1,1.537,1.537,0,0,1-1.481.786H2.115a1.537,1.537,0,0,1-1.481-.786A3.409,3.409,0,0,1,0,39.038l2.115-26.2c.212-1.31,1.058-2.358,2.115-2.358H8.46C8.46,4.716,12.267,0,16.921,0s8.46,4.716,8.46,10.48h4.23C30.669,10.48,31.515,11.528,31.726,12.838ZM21.151,10.48H12.69c0-2.882,1.9-5.24,4.23-5.24S21.151,7.6,21.151,10.48Z" fill="none" stroke="#c7a35f" stroke-width="1.4" fill-rule="evenodd"/>
  </g>
</svg>
