<svg id="Edit" xmlns="http://www.w3.org/2000/svg" width="25" height="25" viewBox="0 0 25 25">
  <path id="Icon_Color" data-name="Icon Color" d="M0,22v0l1.7-6.8L15.844,1.053A3.519,3.519,0,0,1,17.027.269,3.655,3.655,0,0,1,18.4,0a3.48,3.48,0,0,1,1.4.285,3.655,3.655,0,0,1,1.143.772A3.732,3.732,0,0,1,21.715,2.2,3.491,3.491,0,0,1,22,3.6a3.655,3.655,0,0,1-.269,1.375,3.519,3.519,0,0,1-.785,1.181L6.8,20.3,0,22Zm2.772-5.425-.881,3.534,3.533-.881a3.406,3.406,0,0,0-.349-.934,3.492,3.492,0,0,0-.584-.785,3.394,3.394,0,0,0-.786-.584A3.38,3.38,0,0,0,2.772,16.575ZM15.125,3.727h0L3.5,15.34A4.888,4.888,0,0,1,6.66,18.5L18.273,6.875,15.125,3.727ZM18.39,1.375a2.08,2.08,0,0,0-.715.113,2.38,2.38,0,0,0-.569.307,3.77,3.77,0,0,0-.5.441c-.144.15-.316.328-.5.515L19.25,5.9c.209-.211.374-.371.515-.5a3.715,3.715,0,0,0,.441-.5,2.333,2.333,0,0,0,.307-.57,2.053,2.053,0,0,0,.113-.713,2.115,2.115,0,0,0-.178-.865,2.294,2.294,0,0,0-1.192-1.193A2.143,2.143,0,0,0,18.39,1.375Z" transform="translate(1 1)" fill="#cfb539"/>
</svg>
