<svg xmlns="http://www.w3.org/2000/svg" width="21.374" height="18.288" viewBox="0 0 21.374 18.288">
  <path id="_Icon_Color" data-name="↳ Icon Color" d="M.764,18.288c-.459,0-.764-.228-.764-.572V.572C0,.228.305,0,.764,0H14.5c.458,0,.763.228.763.572V4c0,.343-.305.571-.763.571S13.74,4.343,13.74,4V1.143H1.527v16H13.74V14.287c0-.343.305-.572.764-.572s.763.229.763.572v3.429c0,.344-.305.572-.763.572Zm14.655-5.944c-.305-.228-.153-.572.153-.8L18.48,9.715H9.923c-.458,0-.763-.228-.763-.571s.305-.572.763-.572h8.556L15.571,6.744a.574.574,0,0,1-.153-.8,1.194,1.194,0,0,1,1.069-.114l4.58,2.857a.815.815,0,0,1,.306.458.81.81,0,0,1-.306.457l-4.58,2.858a.689.689,0,0,1-.458.114A1.345,1.345,0,0,1,15.419,12.344Z" fill="#c7a35f"/>
</svg>
