<svg xmlns="http://www.w3.org/2000/svg" width="26.284" height="30.9" viewBox="0 0 26.284 30.9">
  <g id="Group_1423" data-name="Group 1423" transform="translate(-19.209 -301)">
    <path id="Path_448" data-name="Path 448" d="M143.648,16.65h.2a5.9,5.9,0,0,0,4.511-1.952c2.464-2.777,2.054-7.538,2.009-7.992-.16-3.411-1.772-5.042-3.1-5.8a7.114,7.114,0,0,0-3.443-.9h-.109a7.125,7.125,0,0,0-3.443.877c-1.344.761-2.982,2.393-3.142,5.829-.045.454-.454,5.215,2.009,7.992A5.881,5.881,0,0,0,143.648,16.65Zm-4.806-9.784c0-.019.006-.038.006-.051.211-4.588,3.468-5.081,4.863-5.081h.077c1.728.038,4.665.742,4.863,5.081a.125.125,0,0,0,.006.051c.006.045.454,4.4-1.581,6.687a4.194,4.194,0,0,1-3.3,1.369h-.064a4.18,4.18,0,0,1-3.289-1.369C138.4,11.275,138.836,6.9,138.842,6.866Z" transform="translate(-111.409 301)" fill="#c7a35f"/>
    <path id="Path_449" data-name="Path 449" d="M62.355,267.2v-.019c0-.051-.006-.1-.006-.16-.038-1.267-.122-4.23-2.9-5.177l-.064-.019a18.465,18.465,0,0,1-5.311-2.419.864.864,0,1,0-.992,1.414,19.93,19.93,0,0,0,5.842,2.668c1.491.531,1.657,2.124,1.7,3.583a1.285,1.285,0,0,0,.006.16,11.615,11.615,0,0,1-.134,1.977,23.549,23.549,0,0,1-11.281,2.624A23.684,23.684,0,0,1,37.93,269.2a11,11,0,0,1-.134-1.977c0-.051.006-.1.006-.16.045-1.459.211-3.052,1.7-3.583a20.115,20.115,0,0,0,5.842-2.668.864.864,0,1,0-.992-1.414,18.261,18.261,0,0,1-5.311,2.419c-.026.006-.045.013-.064.019-2.777.953-2.86,3.916-2.9,5.177a1.284,1.284,0,0,1-.006.16v.019a9.813,9.813,0,0,0,.326,2.9.821.821,0,0,0,.333.4c.192.128,4.793,3.059,12.491,3.059s12.3-2.937,12.491-3.059a.857.857,0,0,0,.333-.4A10.3,10.3,0,0,0,62.355,267.2Z" transform="translate(-16.864 58.344)" fill="#c7a35f"/>
  </g>
</svg>
