<svg id="Group_2097" data-name="Group 2097" xmlns="http://www.w3.org/2000/svg" width="31.067" height="31.067" viewBox="0 0 31.067 31.067">
  <path id="Path_2493" data-name="Path 2493" d="M0,0H31.067V31.067H0Z" fill="none"/>
  <path id="Path_2494" data-name="Path 2494" d="M22.123,19.975V13.5c0-3.974-2.123-7.3-5.825-8.181v-.88a1.942,1.942,0,0,0-3.883,0v.88C8.7,6.2,6.589,9.516,6.589,13.5v6.472L4,22.564v1.294H24.712V22.564Zm-6.472,0H13.061V17.386H15.65Zm0-5.178H13.061V9.62H15.65ZM14.356,27.742a2.6,2.6,0,0,0,2.589-2.589H11.767A2.588,2.588,0,0,0,14.356,27.742Z" transform="translate(1.178 0.736)" fill="#f5aabf"/>
</svg>
