<!-- Generated by IcoMoon.io -->
<svg version="1.1" xmlns="http://www.w3.org/2000/svg" width="1024" height="1024" viewBox="0 0 1024 1024">
<title></title>
<g id="icomoon-ignore">
</g>
<path fill="#000" d="M384.011 884.332h-287.969c-1.664 0.109-3.608 0.171-5.566 0.171-49.969 0-90.477-40.508-90.477-90.477 0-0.977 0.015-1.95 0.046-2.92l-0.004 0.142v-558.5c-0.026-0.808-0.041-1.758-0.041-2.712 0-50.003 40.536-90.539 90.539-90.539 1.936 0 3.857 0.061 5.763 0.18l-0.261-0.013h831.917c1.645-0.107 3.566-0.167 5.502-0.167 50.003 0 90.539 40.536 90.539 90.539 0 0.954-0.015 1.904-0.044 2.85l0.003-0.138v558.5c0.027 0.828 0.043 1.801 0.043 2.778 0 49.969-40.508 90.477-90.477 90.477-1.958 0-3.902-0.062-5.829-0.185l0.263 0.013zM927.928 822.277c1.124 0.158 2.423 0.248 3.743 0.248 15.697 0 28.422-12.725 28.422-28.422 0-1.005-0.052-1.998-0.154-2.976l0.010 0.122v-279.25h-494.18c22.206 23.415 38.247 52.888 45.392 85.683l0.218 1.195c0.367 1.791 0.577 3.849 0.577 5.957 0 15.246-10.996 27.924-25.49 30.535l-0.189 0.028c-1.935 0.417-4.158 0.655-6.436 0.655-15.183 0-27.89-10.597-31.128-24.798l-0.041-0.214c-8.93-36.793-32.461-66.899-63.962-84.396l-0.669-0.341v295.974zM64.021 791.25c-0.091 0.856-0.144 1.849-0.144 2.854 0 15.697 12.725 28.422 28.422 28.422 1.32 0 2.619-0.090 3.891-0.264l-0.148 0.017h223.99v-295.912c-32.212 17.863-55.751 48.049-64.419 84.030l-0.182 0.893c-3.319 14.419-16.045 25.008-31.243 25.008-2.274 0-4.493-0.237-6.633-0.688l0.209 0.037c-14.721-2.607-25.757-15.303-25.757-30.577 0-2.192 0.227-4.33 0.659-6.393l-0.035 0.202c7.363-33.989 23.405-63.463 45.686-86.958l-0.076 0.081h-174.221zM959.981 449.943v-217.194c0.091-0.856 0.144-1.849 0.144-2.854 0-15.697-12.725-28.422-28.422-28.422-1.32 0-2.619 0.090-3.891 0.264l0.148-0.017h-543.948v99.599c3.103-3.506 6.205-6.795 9.308-9.867 18.522-17.031 43.338-27.47 70.592-27.47 1.035 0 2.067 0.015 3.094 0.045l-0.151-0.003c0.034 0 0.075 0 0.116 0 30.393 0 58.375 10.321 80.633 27.65l-0.295-0.221c20.19 18.694 32.953 45.161 33.508 74.615l0.001 0.1c-0.513 29.535-13.249 55.997-33.349 74.622l-0.067 0.062c-3.103 3.103-6.546 6.205-10.146 9.308zM402.070 449.943c10.143-2.872 18.393-5.769 26.424-9.087l-1.601 0.586c28.831-11.626 53.699-26.618 75.739-44.9l-0.466 0.376c9.143-7.24 14.957-18.341 14.957-30.799 0-11.234-4.727-21.363-12.3-28.509l-0.019-0.018c-9.952-7.351-22.463-11.766-36.005-11.766-0.323 0-0.645 0.003-0.967 0.008l0.049-0.001c-0.717-0.043-1.556-0.068-2.4-0.068-10.232 0-19.616 3.634-26.931 9.682l0.071-0.057c-24.361 28.263-43.129 62.097-54.124 99.268l-0.486 1.914v13.373zM320.033 449.943v-13.497c-11.48-39.057-30.259-72.861-54.932-101.435l0.292 0.346c-7.533-6.134-17.248-9.849-27.831-9.849-0.907 0-1.807 0.027-2.7 0.081l0.123-0.006c-0.465-0.014-1.013-0.022-1.562-0.022-11.842 0-22.828 3.663-31.888 9.918l0.188-0.123c-8.962 7.339-14.636 18.405-14.636 30.796s5.675 23.456 14.566 30.74l0.070 0.056c21.605 17.927 46.517 32.921 73.511 43.849l1.887 0.675c6.441 2.74 14.691 5.638 23.132 8.082l1.69 0.419zM166.662 449.943c-3.568-3.103-6.95-6.205-10.084-9.091-19.917-18.53-32.499-44.713-33.043-73.841l-0.001-0.098c0.89-30.845 14.447-58.357 35.626-77.646l0.087-0.078c20.832-15.864 47.218-25.416 75.836-25.416 0.348 0 0.695 0.001 1.042 0.004h-0.053c0.94-0.030 2.044-0.047 3.153-0.047 27.534 0 52.603 10.548 71.389 27.824l-0.075-0.068q4.748 4.624 9.308 9.929v-99.692h-223.804c-1.124-0.158-2.423-0.248-3.743-0.248-15.697 0-28.422 12.725-28.422 28.422 0 1.005 0.052 1.998 0.154 2.976l-0.010-0.122v217.194z"></path>
</svg>
