<!-- Generated by IcoMoon.io -->
<svg version="1.1" xmlns="http://www.w3.org/2000/svg" width="1024" height="1024" viewBox="0 0 1024 1024">
<title></title>
<g id="icomoon-ignore">
</g>
<path fill="#75c6bf" d="M1001.791-0.366h-982.139c-11.541 0-20.898 9.356-20.898 20.898v0 982.146c0 11.541 9.356 20.898 20.898 20.898v0h982.139c11.541 0 20.898-9.356 20.898-20.898v0-982.146c0-11.541-9.356-20.898-20.898-20.898v0zM980.893 981.78h-940.345v-940.352h940.352v940.352z"></path>
<path fill="#75c6bf" d="M389.443 891.921h-9.359c-11.541 0-20.898 9.356-20.898 20.898s9.356 20.898 20.898 20.898v0h9.359c11.541 0 20.898-9.356 20.898-20.898s-9.356-20.898-20.898-20.898v0z"></path>
<path fill="#75c6bf" d="M312.482 891.921h-202.971c-11.541 0-20.898 9.356-20.898 20.898s9.356 20.898 20.898 20.898v0h202.971c11.541 0 20.898-9.356 20.898-20.898s-9.356-20.898-20.898-20.898v0z"></path>
<path fill="#75c6bf" d="M704.798 441.498c0-0.089 0-0.197 0-0.304 0-27.298-15.337-51.014-37.864-62.999l-0.384-0.188c2.019-6.321 3.181-13.59 3.181-21.132 0-39.636-32.131-71.767-71.767-71.767-7.546 0-14.82 1.164-21.652 3.324l0.508-0.139c-12.301-22.958-36.127-38.307-63.538-38.307s-51.237 15.351-63.35 37.923l-0.188 0.384c-6.334-2.028-13.62-3.197-21.179-3.197-39.632 0-71.76 32.127-71.76 71.76 0 7.549 1.166 14.825 3.326 21.66l-0.139-0.508c-22.915 12.313-38.232 36.117-38.232 63.498s15.317 51.185 37.849 63.311l0.383 0.188c-2.021 6.323-3.185 13.595-3.185 21.139 0 39.636 32.131 71.767 71.767 71.767 7.555 0 14.836-1.168 21.676-3.331l-0.508 0.139c8.848 16.681 23.653 29.215 41.515 34.892l0.504 0.138v52.432c-31.217-35.122-76.512-57.14-126.952-57.14-0.009 0-0.016 0-0.025 0h0.002c-11.886 0-21.522 9.636-21.522 21.522v0c0.1 93.863 76.164 169.926 170.017 170.026h0.097c93.804-0.182 169.785-76.217 169.88-170.025v-0.009c0-11.886-9.636-21.522-21.522-21.522v0c-0.011 0-0.023 0-0.036 0-50.429 0-95.717 22.010-126.782 56.947l-0.15 0.172v-52.403c18.366-5.815 33.172-18.348 41.833-34.645l0.186-0.384c6.335 2.024 13.624 3.19 21.184 3.19 0.020 0 0.039 0 0.059 0h-0.004c39.609-0.030 71.704-32.147 71.704-71.76 0-7.546-1.164-14.82-3.324-21.652l0.139 0.508c22.911-12.17 38.25-35.882 38.25-63.178 0-0.114 0-0.231 0-0.345v0.018zM388.535 670.298c51.194 10.11 90.889 49.805 100.865 100.189l0.134 0.81c-51.194-10.11-90.889-49.805-100.865-100.189l-0.134-0.81zM638.022 670.298c-10.108 51.194-49.803 90.891-100.189 100.865l-0.808 0.134c10.107-51.198 49.807-90.894 100.196-100.865l0.808-0.134zM633.779 470.147c-11.621 0.34-20.912 9.842-20.912 21.513 0 5.726 2.235 10.927 5.881 14.784l-0.009-0.011c4.862 5.125 7.85 12.068 7.85 19.709 0 15.83-12.833 28.664-28.664 28.664-7.641 0-14.584-2.99-19.721-7.862l0.013 0.013c-3.846-3.641-9.052-5.881-14.781-5.881-11.673 0-21.175 9.296-21.506 20.891v0.030c-0.44 15.483-13.098 27.866-28.646 27.866s-28.206-12.385-28.646-27.827l-0.002-0.041c-0.34-11.621-9.842-20.912-21.513-20.912-5.726 0-10.927 2.235-14.784 5.881l0.011-0.009c-5.152 4.894-12.136 7.905-19.821 7.905-0.007 0-0.016 0-0.023 0h0.002c-15.805-0.018-28.612-12.835-28.612-28.642 0-7.68 3.022-14.654 7.941-19.796l-0.011 0.011c3.635-3.846 5.87-9.048 5.87-14.774 0-11.671-9.291-21.173-20.88-21.513h-0.030c-15.483-0.44-27.866-13.098-27.866-28.646s12.385-28.206 27.827-28.646l0.041-0.002c11.625-0.331 20.921-9.833 20.921-21.506 0-5.729-2.239-10.934-5.89-14.79l0.009 0.011c-4.862-5.125-7.85-12.068-7.85-19.709 0-15.83 12.833-28.664 28.664-28.664 7.641 0 14.584 2.99 19.721 7.862l-0.013-0.013c3.846 3.641 9.052 5.881 14.781 5.881 11.673 0 21.175-9.296 21.506-20.891v-0.030c0.44-15.483 13.098-27.866 28.646-27.866s28.206 12.385 28.646 27.827l0.002 0.041c0.331 11.625 9.833 20.921 21.506 20.921 5.729 0 10.934-2.239 14.79-5.89l-0.011 0.009c5.152-4.894 12.134-7.905 19.82-7.905 0.009 0 0.018 0 0.027 0h-0.002c15.805 0.018 28.612 12.835 28.612 28.642 0 7.68-3.022 14.654-7.941 19.796l0.011-0.011c-3.641 3.846-5.881 9.052-5.881 14.781 0 11.671 9.293 21.171 20.884 21.506h0.030c15.483 0.44 27.866 13.098 27.866 28.646s-12.385 28.206-27.827 28.646l-0.041 0.002z"></path>
<path fill="#75c6bf" d="M513.286 338.907c-56.807 0-102.859 46.052-102.859 102.859s46.052 102.859 102.859 102.859c56.807 0 102.859-46.052 102.859-102.859v0c-0.066-56.78-46.078-102.793-102.852-102.859h-0.007zM513.286 501.588c-33.039 0-59.822-26.783-59.822-59.822s26.783-59.822 59.822-59.822c33.039 0 59.822 26.783 59.822 59.822v0c-0.025 33.034-26.79 59.809-59.818 59.851h-0.004z"></path>
</svg>
