<!-- Generated by IcoMoon.io -->
<svg version="1.1" xmlns="http://www.w3.org/2000/svg" width="1024" height="1024" viewBox="0 0 1024 1024">
<title></title>
<g id="icomoon-ignore">
</g>
<path fill="#fff" d="M175.991 363.161c-11.54 0-20.896 9.355-20.896 20.896v9.355c0 11.54 9.355 20.896 20.896 20.896s20.896-9.355 20.896-20.896v0-9.355c0-11.54-9.355-20.896-20.896-20.896v0z"></path>
<path fill="#fff" d="M175.991 440.123c-11.54 0-20.896 9.355-20.896 20.896v174.306c0 11.54 9.355 20.896 20.896 20.896s20.896-9.355 20.896-20.896v0-174.306c0-11.54-9.355-20.896-20.896-20.896v0z"></path>
<path fill="#fff" d="M697.729 420.571c0-0.094 0.001-0.205 0.001-0.315 0-26.499-14.885-49.523-36.75-61.164l-0.374-0.182c1.961-6.139 3.091-13.2 3.091-20.527 0-38.491-31.202-69.693-69.693-69.693-7.336 0-14.408 1.134-21.050 3.235l0.493-0.135c-11.947-22.292-35.082-37.197-61.701-37.197s-49.754 14.906-61.517 36.825l-0.183 0.373c-6.157-1.968-13.239-3.102-20.586-3.102-0.014 0-0.027 0-0.041 0h0.002c-38.462 0.032-69.628 31.217-69.628 69.683 0 7.329 1.132 14.396 3.229 21.032l-0.135-0.493c-22.251 11.959-37.124 35.073-37.124 61.662s14.873 49.704 36.753 61.479l0.371 0.183c-1.961 6.139-3.091 13.2-3.091 20.527 0 38.491 31.202 69.693 69.693 69.693 7.336 0 14.408-1.134 21.050-3.235l-0.493 0.135c8.588 16.204 22.968 28.376 40.316 33.886l0.489 0.134v50.915c-30.315-34.105-74.301-55.486-123.281-55.486-0.008 0-0.016 0-0.024 0h0.001c-11.54 0-20.896 9.355-20.896 20.896v0c0.099 91.139 73.955 164.996 165.085 165.095h0.097c91.106-0.143 164.919-73.982 165.017-165.085v-0.009c0-11.54-9.355-20.896-20.896-20.896v0c-0.008 0-0.018 0-0.027 0-48.977 0-92.961 21.377-123.131 55.309l-0.146 0.167v-50.886c17.837-5.646 32.216-17.817 40.624-33.647l0.181-0.374c6.157 1.968 13.239 3.102 20.586 3.102 0.014 0 0.027 0 0.041 0h-0.002c38.457-0.037 69.618-31.221 69.618-69.683 0-7.329-1.132-14.396-3.229-21.032l0.135 0.493c22.238-11.82 37.123-34.842 37.123-61.34 0-0.12 0-0.239-0.001-0.359v0.018zM390.61 642.756c49.712 9.828 88.257 48.375 97.949 97.302l0.13 0.786c-49.712-9.828-88.257-48.375-97.949-97.302l-0.13-0.786zM632.888 642.756c-9.823 49.714-48.366 88.262-97.292 97.958l-0.786 0.13c9.823-49.714 48.366-88.262 97.292-97.958l0.786-0.13zM628.761 448.386c-11.29 0.32-20.32 9.549-20.32 20.888 0 5.562 2.173 10.616 5.717 14.361l-0.009-0.010c4.768 4.984 7.703 11.756 7.703 19.214 0 15.348-12.431 27.793-27.774 27.816h-0.002c-0.005 0-0.010 0-0.016 0-7.467 0-14.252-2.926-19.268-7.695l0.012 0.011c-3.735-3.535-8.789-5.708-14.351-5.708-11.335 0-20.562 9.025-20.887 20.281l-0.001 0.030c-0.291 15.143-12.635 27.307-27.82 27.307s-27.529-12.164-27.82-27.28v-0.027c-0.325-11.286-9.552-20.311-20.888-20.311-5.562 0-10.616 2.173-14.361 5.717l0.010-0.009c-5.001 4.751-11.78 7.674-19.242 7.674-0.011 0-0.021 0-0.032 0h0.002c-15.349-0.017-27.786-12.464-27.786-27.816 0-7.457 2.934-14.23 7.713-19.224l-0.010 0.010c3.535-3.735 5.708-8.789 5.708-14.351 0-11.338-9.030-20.567-20.291-20.887l-0.030-0.001c-15.143-0.291-27.307-12.635-27.307-27.82s12.164-27.529 27.28-27.82h0.027c11.286-0.325 20.311-9.552 20.311-20.888 0-5.562-2.173-10.616-5.717-14.361l0.009 0.010c-4.787-4.991-7.736-11.779-7.736-19.256 0-15.373 12.462-27.835 27.835-27.835 7.476 0 14.265 2.947 19.266 7.745l-0.010-0.009c3.735 3.535 8.789 5.708 14.351 5.708 11.335 0 20.562-9.025 20.887-20.281l0.001-0.030c0.291-15.143 12.635-27.307 27.82-27.307s27.529 12.164 27.82 27.28v0.027c0.325 11.286 9.552 20.311 20.888 20.311 5.562 0 10.616-2.173 14.361-5.717l-0.010 0.009c5.011-4.756 11.799-7.682 19.271-7.684v0c15.349 0.017 27.786 12.464 27.786 27.816 0 7.457-2.934 14.23-7.713 19.224l0.010-0.010c-3.535 3.735-5.708 8.789-5.708 14.351 0 11.335 9.025 20.562 20.281 20.887l0.030 0.001c15.143 0.291 27.307 12.635 27.307 27.82s-12.164 27.529-27.28 27.82h-0.027z"></path>
<path fill="#fff" d="M511.739 320.926c-55.162 0.005-99.876 44.724-99.876 99.886 0 55.166 44.721 99.886 99.886 99.886s99.886-44.721 99.886-99.886v0c-0.066-55.143-44.753-99.826-99.89-99.886h-0.006zM511.739 478.908c-32.085 0-58.096-26.010-58.096-58.096s26.010-58.096 58.096-58.096c32.085 0 58.096 26.010 58.096 58.096v0c-0.038 32.070-26.026 58.057-58.092 58.096h-0.004z"></path>
<path fill="#fff" d="M937.35 179.519h-851.241c-11.54 0-20.896 9.355-20.896 20.896v0 618.55c0 11.54 9.355 20.896 20.896 20.896h851.203c11.54 0 20.896-9.355 20.896-20.896v0-618.55c0 0 0 0 0 0 0-11.526-9.333-20.874-20.855-20.896h-0.002zM916.454 798.070h-809.422v-576.76h809.412z"></path>
<path fill="#fff" d="M1002.829 110.908h-982.172c-11.54 0-20.896 9.355-20.896 20.896v0 755.791c0 11.54 9.355 20.896 20.896 20.896v0h982.172c11.54 0 20.896-9.355 20.896-20.896v-755.791c0-11.54-9.355-20.896-20.896-20.896v0zM981.935 866.7h-940.38v-714.001h940.39v714.001z"></path>
</svg>
