<!-- Generated by IcoMoon.io -->
<svg version="1.1" xmlns="http://www.w3.org/2000/svg" width="1024" height="1024" viewBox="0 0 1024 1024">
<title></title>
<g id="icomoon-ignore">
</g>
<path fill="#fff" d="M785.822 426.885v-150.883c0-152.427-123.567-275.994-275.994-275.994s-275.994 123.567-275.994 275.994v0 154.497l-26.888 188.677c-2.274 15.085-3.573 32.491-3.573 50.202 0 39.085 6.326 76.694 18.009 111.857l-0.721-2.503c-40.857 57.086-65.357 128.306-65.426 205.245v0.017c0 0 0 0 0 0 0 22.063 17.864 39.953 39.915 39.997h629.289c22.090 0 39.997-17.908 39.997-39.997v0c-2.669-40.819 17.036-266.127-78.614-557.109zM774.792 748.571c-31.198-34.979-68.745-63.542-110.937-84.031l-2.12-0.929c33.828-22.624 61.71-51.416 82.632-84.994l0.683-1.176c11.654 46.742 22.104 104.909 29.074 164.142l0.669 6.987zM313.828 433.339c0.018-21.346 17.317-38.645 38.661-38.663h314.675c21.325 0.018 38.61 17.282 38.663 38.596v0.005c0.005 0.518 0.008 1.131 0.008 1.744 0 108.247-87.752 196-196 196s-196-87.752-196-196c0-0.613 0.003-1.225 0.008-1.837l-0.001 0.093zM353.935 314.681c36.125-47.197 92.486-77.333 155.885-77.333s119.761 30.136 155.541 76.864l0.345 0.469zM509.828 80.003c93.657 0.126 171.937 65.815 191.413 153.626l0.243 1.305c-49.517-48.012-117.13-77.609-191.656-77.609s-142.139 29.597-191.726 77.677l0.070-0.068c19.719-89.117 97.997-154.805 191.642-154.931h0.014zM238.101 943.997c4.449-29.461 12.892-56.011 24.861-80.526l-0.72 1.633c20.221 30.314 43.822 56.308 70.749 78.4l0.62 0.493zM557.97 943.997c-151.694-0.051-274.648-123.036-274.648-274.737 0-13.678 1-27.122 2.929-40.263l-0.18 1.492 4.282-30.006c50.871 66.434 130.219 108.85 219.473 108.852v0c137.521 0.173 251.386 101.232 271.567 233.133l0.193 1.53h-223.616z"></path>
</svg>
