<!-- Generated by IcoMoon.io -->
<svg version="1.1" xmlns="http://www.w3.org/2000/svg" width="1024" height="1024" viewBox="0 0 1024 1024">
<title></title>
<g id="icomoon-ignore">
</g>
<path fill="#fff" d="M921.45 165.046l-391.956-162.785c-4.532-1.934-9.803-3.057-15.338-3.057s-10.806 1.124-15.599 3.157l0.262-0.099-391.971 162.785c-14.598 6.177-24.656 20.381-24.657 36.933v0 197.833c0 0.064 0 0.14 0 0.216 0 278.719 170.24 517.678 412.41 618.565l4.43 1.636c4.461 1.867 9.644 2.951 15.081 2.951s10.621-1.085 15.346-3.048l-0.265 0.097c246.601-102.525 416.839-341.483 416.839-620.202 0-0.060 0-0.121 0-0.181v0.010-197.878c0-0.008 0-0.018 0-0.028 0-16.525-10.023-30.71-24.321-36.807l-0.261-0.099zM866.117 399.812c0 0.027 0 0.059 0 0.091 0 239.689-142.943 445.991-348.232 538.311l-3.727 1.499c-209.060-93.811-352.036-300.14-352.036-539.862 0-0.013 0-0.027 0-0.040v0.002-171.124l351.961-146.135 351.961 146.135zM469.939 534.621l171.924-171.924c7.238-7.236 17.234-11.71 28.277-11.71 22.089 0 39.995 17.906 39.995 39.995 0 11.046-4.479 21.046-11.718 28.285l-200.201 200.201c-7.238 7.24-17.238 11.718-28.285 11.718s-21.046-4.479-28.285-11.718l-111.78-111.78c-7.239-7.239-11.716-17.238-11.716-28.285 0-22.092 17.908-40 40-40 11.046 0 21.046 4.478 28.285 11.716v0z"></path>
</svg>
