<!-- Generated by IcoMoon.io -->
<svg version="1.1" xmlns="http://www.w3.org/2000/svg" width="1024" height="1024" viewBox="0 0 1024 1024">
<title></title>
<g id="icomoon-ignore">
</g>
<path fill="#fff" d="M431.997 126.002c-11.044 0-19.997 8.953-19.997 19.997s8.953 19.997 19.997 19.997c11.044 0 19.997-8.953 19.997-19.997v0c-0.006-11.042-8.955-19.992-19.997-19.997h-0.001z"></path>
<path fill="#fff" d="M551.998 126.002c-33.137 0-60.001 26.864-60.001 60.001s26.864 60.001 60.001 60.001c33.137 0 60.001-26.864 60.001-60.001v0c-0.038-33.121-26.879-59.962-59.997-60.001h-0.004zM551.998 206c-11.044 0-19.997-8.953-19.997-19.997s8.953-19.997 19.997-19.997c11.044 0 19.997 8.953 19.997 19.997v0c-0.016 11.038-8.96 19.981-19.996 19.997h-0.002z"></path>
<path fill="#fff" d="M352 126.002h-79.998c-11.047 0-20.002 8.955-20.002 20.002s8.955 20.002 20.002 20.002v0h79.998c11.047 0 20.002-8.955 20.002-20.002s-8.955-20.002-20.002-20.002v0z"></path>
<path fill="#fff" d="M751.988 166.006h-79.998c-11.047 0-20.002 8.955-20.002 20.002s8.955 20.002 20.002 20.002v0h79.998c11.047 0 20.002-8.955 20.002-20.002s-8.955-20.002-20.002-20.002v0z"></path>
<path fill="#fff" d="M1023.992 60.009c-0.006-11.042-8.955-19.992-19.997-19.997h-152.002v-20.007c0-11.044-8.953-19.997-19.997-19.997h-639.99c-11.028 0.022-19.959 8.967-19.959 19.997 0 0 0 0 0 0v0 20.007h-152.040c-11.044 0-19.997 8.953-19.997 19.997v0 286.858c0 0.416 0 0.822 0.058 1.227s-0.058 0.822-0.058 1.227v162.672c0 11.044 8.953 19.997 19.997 19.997v0h152.040v19.997c0 11.044 8.953 19.997 19.997 19.997v0h305.715l33.992 355.335c1.001 10.197 9.531 18.099 19.907 18.099 5.945 0 11.284-2.594 14.947-6.713l0.018-0.020 65.481-73.861 86.126 149.161c3.522 6.020 9.955 9.999 17.319 9.999 3.684 0 7.135-0.996 10.099-2.734l-0.094 0.051 69.279-40.003c6.020-3.522 9.999-9.955 9.999-17.319 0-3.684-0.996-7.135-2.734-10.099l0.051 0.094-86.116-149.152 96.727-19.794c9.188-1.93 15.988-9.966 15.988-19.591 0-6.876-3.471-12.942-8.756-16.541l-0.069-0.045-262.542-176.87h254.616c11.044 0 19.997-8.953 19.997-19.997v0-19.988h151.992c11.042-0.006 19.992-8.955 19.997-19.997v-162.683c0-0.416 0-0.822-0.058-1.227s0.058-0.812 0.058-1.227zM172.047 491.959h-132.034v-142.637c0-0.416 0-0.822-0.058-1.227s0.058-0.812 0.058-1.227v-266.862h132.034zM778.045 755.4l-77.224 15.803c-9.189 1.929-15.991 9.966-15.991 19.592 0 3.683 0.996 7.134 2.733 10.097l-0.051-0.094 90.001 155.878-34.639 19.997-89.992-155.878c-3.522-6.019-9.955-9.998-17.318-9.998-5.945 0-11.283 2.594-14.946 6.711l-0.018 0.020-53.419 60.242-27.063-282.635zM811.989 532.002h-599.987v-91.904l159.966-165.272 119.267 123.713c0.3 0.367 0.59 0.744 0.918 1.092l4.987 5.036 20.452 21.263c0.972 1.003 2.041 1.9 3.196 2.68l0.071 0.045 56.482 57.024c3.634 3.702 8.69 5.997 14.283 5.997 11.050 0 20.007-8.957 20.007-20.007 0-5.085-1.897-9.728-5.023-13.258l0.018 0.021-46.498-46.933 91.962-96.563 159.898 165.156zM811.989 422.574l-145.624-150.485c-3.642-3.757-8.735-6.089-14.372-6.089h-0.077c-5.664 0.023-10.77 2.398-14.394 6.197l-0.008 0.008-105.532 110.819-5.181-5.219-140.405-145.682c-3.64-3.77-8.737-6.113-14.381-6.118h-0.001c-0.001 0-0.002 0-0.004 0-5.637 0-10.728 2.332-14.363 6.084l-0.005 0.005-145.643 150.485v-342.568h599.987zM984.026 349.323v142.637h-132.034v-411.953h131.996v266.852c0 0.416 0 0.822 0.058 1.227s-0.058 0.831-0.058 1.237z"></path>
</svg>
