<!-- Generated by IcoMoon.io -->
<svg version="1.1" xmlns="http://www.w3.org/2000/svg" width="1024" height="1024" viewBox="0 0 1024 1024">
<title></title>
<g id="icomoon-ignore">
</g>
<path fill="#f5aabf" d="M837.866 150.837c-86.902-97.246-202.64-150.801-325.88-150.801s-238.978 53.555-325.873 150.801c-86.316 96.589-133.851 224.846-133.851 361.161s47.53 264.6 133.844 361.161c86.902 97.246 202.633 150.801 325.873 150.801s238.978-53.555 325.88-150.801c86.309-96.582 133.844-224.846 133.844-361.161s-47.53-264.572-133.837-361.161zM806.699 845.343c-78.865 88.249-183.532 136.887-294.715 136.887s-215.849-48.686-294.715-136.887c-164.242-183.788-164.242-482.835 0-666.621 78.865-88.249 183.525-136.887 294.715-136.887s215.849 48.601 294.715 136.887c164.235 183.751 164.235 482.798 0 666.621z"></path>
<path fill="#f5aabf" d="M737.875 245.98c-60.089-72.359-140.309-112.191-225.898-112.191s-165.816 39.853-225.891 112.191c-59.15 71.265-91.727 165.71-91.727 266.011s32.577 194.788 91.727 266.011c60.082 72.359 140.309 112.191 225.891 112.191s165.816-39.853 225.898-112.191c59.15-71.265 91.727-165.71 91.727-266.011s-32.577-194.774-91.727-266.011zM705.722 751.301c-52.003 62.621-120.805 97.119-193.743 97.119s-141.733-34.475-193.736-97.119c-109.586-131.946-109.586-346.674 0-478.636 52.003-62.614 120.805-97.133 193.736-97.133s141.74 34.489 193.743 97.112c109.579 131.997 109.579 346.71 0 478.657z"></path>
<path fill="#f5aabf" d="M149.045 405.248c-1.090-0.201-2.346-0.318-3.627-0.318-10.25 0-18.776 7.385-20.547 17.125l-0.019 0.127q-0.91 5.173-1.714 10.372c-0.156 0.96-0.247 2.068-0.247 3.197 0 11.54 9.356 20.895 20.895 20.895 10.412 0 19.045-7.616 20.634-17.58l0.016-0.12q0.741-4.77 1.573-9.533c0.198-1.080 0.311-2.322 0.311-3.589 0-10.261-7.395-18.792-17.146-20.558l-0.127-0.019z"></path>
<path fill="#f5aabf" d="M195.757 695.003c-23.352-53.823-36.937-116.51-36.937-182.367 0-3.921 0.049-7.83 0.144-11.728l-0.010 0.578c0.003-0.135 0.005-0.295 0.005-0.457 0-11.391-9.113-20.653-20.445-20.895h-0.488c-11.384 0.005-20.641 9.113-20.886 20.44v0.023c-0.090 3.572-0.141 7.779-0.141 11.997 0 71.831 14.826 140.201 41.584 202.215l-1.273-3.315c3.341 7.362 10.629 12.391 19.089 12.391 11.542 0 20.9-9.358 20.9-20.9 0-2.865-0.576-5.597-1.62-8.083l0.052 0.137z"></path>
<path fill="#f5aabf" d="M697.96 432.548c0-0.087 0-0.191 0-0.295 0-26.508-14.893-49.539-36.769-61.178l-0.373-0.182c1.96-6.138 3.089-13.197 3.089-20.521 0-38.49-31.202-69.692-69.692-69.692-7.328 0-14.392 1.13-21.026 3.228l0.493-0.135c-11.945-22.294-35.083-37.2-61.701-37.2s-49.756 14.907-61.518 36.826l-0.182 0.373c-6.15-1.969-13.226-3.105-20.566-3.105-38.486 0-69.685 31.199-69.685 69.685 0 7.331 1.132 14.397 3.23 21.033l-0.135-0.493c-22.252 11.957-37.127 35.072-37.127 61.663s14.874 49.705 36.755 61.48l0.372 0.182c-1.962 6.14-3.093 13.202-3.093 20.528 0 38.49 31.202 69.692 69.692 69.692 7.336 0 14.407-1.134 21.049-3.235l-0.493 0.135c8.592 16.199 22.97 28.37 40.315 33.883l0.49 0.134v50.916c-30.315-34.107-74.3-55.488-123.282-55.488-0.009 0-0.016 0-0.024 0h0.002c-11.542 0-20.9 9.358-20.9 20.9v0c0.097 91.149 73.962 165.013 165.102 165.111h0.094c91.092-0.177 164.876-74.014 164.968-165.109v-0.009c0-11.542-9.358-20.9-20.9-20.9v0c-0.010 0-0.023 0-0.035 0-48.971 0-92.95 21.374-123.117 55.3l-0.146 0.167v-50.888c17.835-5.647 32.213-17.818 40.624-33.643l0.181-0.373c6.152 1.966 13.23 3.098 20.572 3.098 0.019 0 0.038 0 0.057 0h-0.003c38.464-0.030 69.631-31.218 69.631-69.685 0-7.328-1.13-14.392-3.228-21.026l0.135 0.493c22.249-11.818 37.144-34.845 37.144-61.352 0-0.111 0-0.224 0-0.335v0.017zM390.84 654.733c49.714 9.818 88.261 48.365 97.949 97.292l0.13 0.787c-49.714-9.818-88.261-48.365-97.949-97.292l-0.13-0.787zM633.115 654.733c-9.816 49.714-48.363 88.263-97.292 97.949l-0.785 0.13c9.814-49.718 48.367-88.266 97.299-97.949l0.785-0.13zM628.994 460.369c-11.285 0.33-20.308 9.557-20.308 20.891 0 5.56 2.171 10.611 5.711 14.357l-0.009-0.010c4.721 4.977 7.623 11.719 7.623 19.139 0 15.373-12.462 27.835-27.835 27.835-7.42 0-14.162-2.903-19.151-7.635l0.012 0.012c-3.735-3.535-8.79-5.711-14.353-5.711-11.335 0-20.563 9.028-20.884 20.287v0.030c-0.427 15.036-12.719 27.061-27.818 27.061s-27.391-12.027-27.818-27.022l-0.002-0.040c-0.33-11.285-9.557-20.308-20.891-20.308-5.56 0-10.611 2.171-14.357 5.711l0.010-0.009c-5.003 4.753-11.785 7.677-19.248 7.677-0.007 0-0.016 0-0.023 0h0.002c-15.348-0.017-27.785-12.464-27.785-27.814 0-7.458 2.935-14.23 7.712-19.224l-0.010 0.010c3.53-3.735 5.701-8.786 5.701-14.346 0-11.334-9.023-20.561-20.276-20.891h-0.030c-15.036-0.427-27.061-12.719-27.061-27.818s12.027-27.391 27.022-27.818l0.040-0.002c11.289-0.321 20.316-9.549 20.316-20.884 0-5.564-2.174-10.618-5.72-14.362l0.009 0.010c-4.721-4.977-7.623-11.719-7.623-19.139 0-15.373 12.462-27.835 27.835-27.835 7.42 0 14.162 2.903 19.151 7.635l-0.012-0.012c3.735 3.535 8.79 5.711 14.353 5.711 11.335 0 20.563-9.028 20.884-20.287v-0.030c0.427-15.036 12.719-27.061 27.818-27.061s27.391 12.027 27.818 27.022l0.002 0.040c0.321 11.289 9.549 20.316 20.884 20.316 5.564 0 10.618-2.174 14.362-5.72l-0.010 0.009c5.003-4.753 11.783-7.677 19.247-7.677 0.009 0 0.017 0 0.026 0h-0.002c15.348 0.017 27.785 12.464 27.785 27.814 0 7.458-2.935 14.23-7.712 19.224l0.010-0.010c-3.535 3.735-5.711 8.79-5.711 14.353 0 11.334 9.024 20.559 20.28 20.884h0.030c15.036 0.427 27.061 12.719 27.061 27.818s-12.027 27.391-27.022 27.818l-0.040 0.002z"></path>
<path fill="#f5aabf" d="M511.984 332.923c-55.165 0-99.885 44.72-99.885 99.885s44.72 99.885 99.885 99.885c55.165 0 99.885-44.72 99.885-99.885v0c-0.064-55.139-44.746-99.821-99.878-99.885h-0.007zM511.984 490.901c-32.084 0-58.092-26.008-58.092-58.092s26.008-58.092 58.092-58.092c32.084 0 58.092 26.008 58.092 58.092v0c-0.024 32.079-26.015 58.080-58.089 58.12h-0.003z"></path>
</svg>
