<!-- Generated by IcoMoon.io -->
<svg version="1.1" xmlns="http://www.w3.org/2000/svg" width="1024" height="1024" viewBox="0 0 1024 1024">
<title></title>
<g id="icomoon-ignore">
</g>
<path fill="#b6e3e0" d="M911.326-0.353h-802.429c-0.002 0-0.005 0-0.007 0-11.539 0-20.894 9.355-20.894 20.894v0 982.15c0 11.539 9.355 20.894 20.894 20.894v0h802.436c1.439-0.007 2.842-0.151 4.198-0.423l-0.139 0.024c-0.076 0-0.131 0 0 0 9.16-1.85 0.586-0.117 0 0 0.083 0 0.063 0 0 0 9.593-2.069 16.69-10.44 16.78-20.485v-982.16c-0.153-11.458-9.386-20.711-20.821-20.894h-0.017zM860.874 41.444l-122.248 122.248h-456.164l-122.248-122.248zM726.394 205.482v612.278h-432.564v-612.278zM129.792 70.125l122.248 122.248v638.508l-122.248 122.248zM160.213 981.79l122.248-122.248h456.178l122.248 122.248zM890.432 952.232l-122.248-122.248v-636.748l122.248-122.248v881.245z"></path>
<path fill="#b6e3e0" d="M191.78 493.666c-11.539 0-20.894 9.355-20.894 20.894v0 9.353c0 11.541 9.357 20.898 20.898 20.898s20.898-9.357 20.898-20.898v0-9.353c0-11.539-9.355-20.894-20.894-20.894-0.002 0-0.005 0-0.007 0v0z"></path>
<path fill="#b6e3e0" d="M191.78 570.625c-11.539 0-20.894 9.355-20.894 20.894v0 174.322c0 11.541 9.357 20.898 20.898 20.898s20.898-9.357 20.898-20.898v0-174.322c0-11.539-9.355-20.894-20.894-20.894-0.002 0-0.005 0-0.007 0v0z"></path>
<path fill="#b6e3e0" d="M695.159 445.016c0-0.085 0-0.187 0-0.289 0-25.933-14.57-48.463-35.971-59.85l-0.365-0.178c1.918-6.005 3.022-12.91 3.022-20.076 0-37.654-30.525-68.179-68.179-68.179-7.169 0-14.079 1.106-20.57 3.158l0.482-0.133c-11.686-21.81-34.321-36.392-60.361-36.392s-48.676 14.584-60.183 36.027l-0.178 0.365c-6.017-1.926-12.939-3.037-20.12-3.037-37.651 0-68.172 30.521-68.172 68.172 0 7.172 1.108 14.084 3.16 20.577l-0.133-0.482c-21.769 11.697-36.321 34.311-36.321 60.324s14.551 48.626 35.957 60.145l0.364 0.178c-1.92 6.007-3.025 12.915-3.025 20.082 0 37.654 30.525 68.179 68.179 68.179 7.177 0 14.094-1.109 20.592-3.165l-0.482 0.133c8.405 15.847 22.471 27.754 39.439 33.147l0.479 0.131v49.81c-29.656-33.367-72.687-54.283-120.605-54.283-0.008 0-0.015 0-0.024 0h0.002c-11.291 0-20.446 9.154-20.446 20.446v0c0.095 89.17 72.356 161.431 161.517 161.526h0.092c89.114-0.173 161.296-72.407 161.386-161.524v-0.008c0-11.291-9.154-20.446-20.446-20.446v0c-0.010 0-0.022 0-0.034 0-47.908 0-90.931 20.91-120.444 54.1l-0.143 0.163v-49.783c17.448-5.524 31.513-17.431 39.742-32.913l0.177-0.365c6.019 1.923 12.943 3.031 20.125 3.031 0.019 0 0.037 0 0.056 0h-0.003c37.629-0.029 68.119-30.54 68.119-68.172 0-7.169-1.106-14.079-3.158-20.57l0.133 0.482c21.766-11.562 36.338-34.088 36.338-60.020 0-0.109 0-0.219 0-0.328v0.017zM394.708 662.377c48.635 9.605 86.345 47.315 95.822 95.18l0.127 0.77c-48.635-9.605-86.345-47.315-95.822-95.18l-0.127-0.77zM631.722 662.377c-9.603 48.635-47.313 86.347-95.18 95.822l-0.768 0.127c9.601-48.638 47.317-86.35 95.187-95.822l0.768-0.127zM627.691 472.233c-11.040 0.323-19.867 9.35-19.867 20.437 0 5.439 2.123 10.381 5.587 14.045l-0.008-0.010c4.619 4.869 7.457 11.465 7.457 18.723 0 15.039-12.192 27.231-27.231 27.231-7.259 0-13.855-2.84-18.735-7.469l0.012 0.012c-3.654-3.459-8.599-5.587-14.042-5.587-11.089 0-20.116 8.832-20.431 19.846v0.029c-0.418 14.709-12.443 26.473-27.214 26.473s-26.796-11.765-27.214-26.436l-0.002-0.039c-0.323-11.040-9.35-19.867-20.437-19.867-5.439 0-10.381 2.123-14.045 5.587l0.010-0.008c-4.894 4.649-11.529 7.51-18.83 7.51-0.007 0-0.015 0-0.022 0h0.002c-15.015-0.017-27.181-12.194-27.181-27.21 0-7.296 2.871-13.921 7.544-18.807l-0.010 0.010c3.454-3.654 5.577-8.596 5.577-14.035 0-11.088-8.827-20.115-19.836-20.437h-0.029c-14.709-0.418-26.473-12.443-26.473-27.214s11.765-26.796 26.436-27.214l0.039-0.002c11.043-0.314 19.875-9.341 19.875-20.431 0-5.443-2.127-10.388-5.596-14.050l0.008 0.010c-4.619-4.869-7.457-11.465-7.457-18.723 0-15.039 12.192-27.231 27.231-27.231 7.259 0 13.855 2.84 18.735 7.469l-0.012-0.012c3.654 3.459 8.599 5.587 14.042 5.587 11.089 0 20.116-8.832 20.431-19.846v-0.029c0.418-14.709 12.443-26.473 27.214-26.473s26.796 11.765 27.214 26.436l0.002 0.039c0.314 11.043 9.341 19.875 20.431 19.875 5.443 0 10.388-2.127 14.050-5.596l-0.010 0.008c4.894-4.649 11.528-7.51 18.829-7.51 0.008 0 0.017 0 0.025 0h-0.002c15.015 0.017 27.181 12.194 27.181 27.21 0 7.296-2.871 13.921-7.544 18.807l0.010-0.010c-3.459 3.654-5.587 8.599-5.587 14.042 0 11.088 8.828 20.113 19.84 20.431h0.029c14.709 0.418 26.473 12.443 26.473 27.214s-11.765 26.796-26.436 27.214l-0.039 0.002z"></path>
<path fill="#b6e3e0" d="M513.221 347.554c-53.967 0-97.716 43.749-97.716 97.716s43.749 97.716 97.716 97.716c53.967 0 97.716-43.749 97.716-97.716v0c-0.063-53.942-43.775-97.653-97.709-97.716h-0.007zM513.221 502.101c-31.387 0-56.831-25.444-56.831-56.831s25.444-56.831 56.831-56.831c31.387 0 56.831 25.444 56.831 56.831v0c-0.024 31.382-25.45 56.819-56.828 56.858h-0.003z"></path>
</svg>
