<!-- Generated by IcoMoon.io -->
<svg version="1.1" xmlns="http://www.w3.org/2000/svg" width="1024" height="1024" viewBox="0 0 1024 1024">
<title></title>
<g id="icomoon-ignore">
</g>
<path fill="#fff" d="M1007.636 300.921c-6.942-5.953-16.032-9.577-25.969-9.577-6.369 0-12.391 1.489-17.736 4.137l0.233-0.104-218.908 106.515-205.388-236.81c-7.375-8.471-18.175-13.794-30.219-13.794s-22.845 5.323-30.178 13.745l-0.041 0.048-205.375 236.81-218.948-106.569c-5.096-2.526-11.098-4.005-17.445-4.005-22.090 0-39.998 17.907-39.998 39.998 0 4.14 0.629 8.134 1.797 11.89l-0.076-0.283 152.004 499.99c5.148 16.552 20.329 28.362 38.268 28.362 0.002 0 0.005 0 0.007 0h639.984c17.937-0.003 33.114-11.812 38.186-28.079l0.076-0.283 152.017-499.977c1.092-3.474 1.722-7.467 1.722-11.609 0-12.145-5.414-23.027-13.958-30.362l-0.053-0.045zM800.030 791.346h-580.722l-116.708-383.951 164.041 79.863c5.112 2.546 11.136 4.034 17.507 4.034 12.041 0 22.84-5.32 30.172-13.739l0.041-0.048 195.302-225.16 195.288 225.16c7.374 8.466 18.173 13.787 30.213 13.787 6.371 0 12.394-1.49 17.74-4.14l-0.233 0.104 164.041-79.863z"></path>
</svg>
