<svg xmlns="http://www.w3.org/2000/svg" width="16" height="12.571" viewBox="0 0 16 12.571">
  <path id="Icon" d="M14.571,12.571H1.428A1.43,1.43,0,0,1,0,11.143V4.054a5.028,5.028,0,0,0,.9.777l.545.37c1.286.874,2.615,1.777,3.893,2.71A4.873,4.873,0,0,0,7.991,9.143h.018A4.873,4.873,0,0,0,10.66,7.911c1.4-1.016,2.844-2,4.447-3.081A5.291,5.291,0,0,0,16,4.054v7.089A1.43,1.43,0,0,1,14.571,12.571ZM8.009,8H7.991a4.235,4.235,0,0,1-1.963-.991c-.116-.085-.226-.164-.323-.232C4.809,6.146,3.891,5.51,3,4.894q-.737-.511-1.467-1.019A3.48,3.48,0,0,1,0,1.625,1.452,1.452,0,0,1,1.428,0H14.571A1.43,1.43,0,0,1,16,1.428a3.315,3.315,0,0,1-1.527,2.447l-.981.678c-1.051.726-2.138,1.478-3.2,2.223-.1.067-.205.146-.32.23A4.242,4.242,0,0,1,8.009,8Z" fill="#bebdbf"/>
</svg>
