<svg xmlns="http://www.w3.org/2000/svg" width="27.496" height="27.496" viewBox="0 0 27.496 27.496">
  <path id="Path_899" data-name="Path 899" d="M3,6.055V27.441A3.054,3.054,0,0,0,6.055,30.5H27.441A3.064,3.064,0,0,0,30.5,27.441V6.055A3.064,3.064,0,0,0,27.441,3H6.055A3.054,3.054,0,0,0,3,6.055Zm18.331,6.11a4.583,4.583,0,1,1-4.583-4.583A4.577,4.577,0,0,1,21.331,12.165ZM7.583,24.386c0-3.055,6.11-4.735,9.165-4.735s9.165,1.68,9.165,4.735v1.528H7.583Z" transform="translate(-3 -3)" fill="#fff"/>
</svg>
