<svg xmlns="http://www.w3.org/2000/svg" width="74.791" height="74.791" viewBox="0 0 74.791 74.791"><defs><style>.a{fill:#a8a8a8;}</style></defs><path class="a" d="M28.047,0H0V28.047H28.047ZM23.372,23.372H4.674V4.674h18.7Z"/><path class="a" d="M2,2h9.349v9.349H2Z" transform="translate(7.349 7.349)"/><path class="a" d="M0,38.047H28.047V10H0ZM4.674,14.674h18.7v18.7H4.674Z" transform="translate(0 36.744)"/><path class="a" d="M2,12h9.349v9.349H2Z" transform="translate(7.349 44.093)"/><path class="a" d="M10,0V28.047H38.047V0ZM33.372,23.372h-18.7V4.674h18.7Z" transform="translate(36.744)"/><path class="a" d="M12,2h9.349v9.349H12Z" transform="translate(44.093 7.349)"/><path class="a" d="M9.349,7H0v9.349H14.023V11.674H9.349Z" transform="translate(0 25.721)"/><path class="a" d="M7,9h9.349v9.349H7Z" transform="translate(25.721 33.07)"/><path class="a" d="M3,7h9.349v4.674H3Z" transform="translate(11.023 25.721)"/><path class="a" d="M16.349,12H7v4.674h4.674v4.674h4.674V12Z" transform="translate(25.721 44.093)"/><path class="a" d="M9.674,7v4.674H5v4.674h9.349V7Z" transform="translate(18.372 25.721)"/><path class="a" d="M8,4h4.674v9.349H8Z" transform="translate(29.396 14.698)"/><path class="a" d="M12.674,11.674v4.674h9.349V7H8v4.674Z" transform="translate(29.396 25.721)"/><path class="a" d="M7,6h4.674v4.674H7Z" transform="translate(25.721 22.047)"/><path class="a" d="M9,14h9.349v9.349H9Z" transform="translate(33.07 51.442)"/><path class="a" d="M7,14h4.674v9.349H7Z" transform="translate(25.721 51.442)"/><path class="a" d="M9,11h4.674v4.674H9Z" transform="translate(33.07 40.419)"/><path class="a" d="M16.349,14.023V4.674H11.674V0H7V18.7h4.674V14.023Z" transform="translate(25.721)"/><path class="a" d="M12,14h4.674v9.349H12Z" transform="translate(44.093 51.442)"/><path class="a" d="M12,12h9.349v4.674H12Z" transform="translate(44.093 44.093)"/><path class="a" d="M11,13h4.674v4.674H11Z" transform="translate(40.419 47.768)"/><path class="a" d="M10,12h4.674v4.674H10Z" transform="translate(36.744 44.093)"/><path class="a" d="M14,10v4.674h4.674v4.674h4.674V10H14Z" transform="translate(51.442 36.744)"/><path class="a" d="M18.674,13H14V27.023h9.349V17.674H18.674Z" transform="translate(51.442 47.768)"/><path class="a" d="M10,13.674v4.674H24.023V9H14.674v4.674Z" transform="translate(36.744 33.07)"/><path class="a" d="M12,7v4.674h9.349v4.674H30.7V7H12Z" transform="translate(44.093 25.721)"/></svg>